<?xml version="1.0" encoding="UTF-8"?>
<svg id="Layer_1" data-name="Layer 1" xmlns="http://www.w3.org/2000/svg" xmlns:xlink="http://www.w3.org/1999/xlink" viewBox="0 0 100 100">
  <defs>
    <style>
      .cls-1 {
        fill: #fff;
      }

      .cls-2 {
        fill: url(#radial-gradient);
      }
    </style>
    <radialGradient id="radial-gradient" cx="50" cy="50" fx="50" fy="50" r="65.62" gradientUnits="userSpaceOnUse">
      <stop offset="0" stop-color="#0062ff"/>
      <stop offset=".16" stop-color="#005ff9"/>
      <stop offset=".38" stop-color="#0058e9"/>
      <stop offset=".61" stop-color="#004ccf"/>
      <stop offset=".86" stop-color="#003baa"/>
      <stop offset="1" stop-color="#003194"/>
    </radialGradient>
  </defs>
  <rect class="cls-2" x="0" width="100" height="100" rx="11.97" ry="11.97"/>
  <g>
    <path class="cls-1" d="M50.04,53.94c8.4,0,16.8,0,25.2,0,1.41,0,1.71,.37,1.45,1.74-1.35,7.11-2.69,14.21-4.03,21.32-.25,1.34-.38,1.46-1.77,1.46-13.95,0-27.91,0-41.86,0-1.28,0-1.44-.13-1.67-1.36-1.35-7.16-2.71-14.32-4.06-21.48-.24-1.27,.08-1.67,1.37-1.67,8.46,0,16.91,0,25.37,0Z"/>
    <path class="cls-1" d="M50.86,43.17c-4.12-.01-7.5-2.71-8.58-6.94-.12-.46-.31-.71-.7-.95-1.7-1.01-2.61-3.36-2.08-5.21,.15-.53,.36-1.1,.83-1.33,.78-.37,.76-1,.8-1.67,.1-1.67,.37-3.3,1.21-4.79,.96-1.71,2.43-2.6,4.37-2.75,.3-.02,.6,.04,.74-.37,.44-1.21,1.49-1.55,2.62-1.64,5.27-.41,10.02,3.56,10.59,8.81,.1,.92,.2,1.72,.95,2.52,1.55,1.65,.61,5.41-1.48,6.47-.49,.25-.67,.57-.82,1.04-1.06,3.47-3.24,5.8-6.87,6.6-.52,.11-1.06,.13-1.59,.19Z"/>
    <path class="cls-1" d="M50.01,52.99c-4.99,0-9.97,0-14.96,0-.94,0-1.14-.32-.64-1.16,2.32-3.91,5.71-6.36,10.13-7.39,.56-.13,1,0,1.44,.43,2.71,2.68,6.48,2.8,9.33,.29,.51-.45,.99-.54,1.61-.34,3.7,1.23,6.56,3.52,8.59,6.84,.09,.14,.18,.29,.23,.45,.19,.56,.12,.89-.61,.89-3.58-.02-7.16-.01-10.73-.01-1.47,0-2.93,0-4.4,0Z"/>
    <path class="cls-1" d="M49.97,82.49c-6.93,0-13.86,0-20.8,0-.23,0-.45,.02-.68-.01-.54-.08-.87-.4-.86-.97,0-.57,.33-.88,.89-.93,.25-.03,.51-.02,.76-.02,13.81,0,27.62,0,41.42,0,1.22,0,1.65,.24,1.67,.94,.02,.73-.44,1-1.69,1-6.9,0-13.81,0-20.71,0Z"/>
  </g>
</svg>