<?xml version="1.0" encoding="UTF-8"?>
<svg id="Layer_1" data-name="Layer 1" xmlns="http://www.w3.org/2000/svg" xmlns:xlink="http://www.w3.org/1999/xlink" viewBox="0 0 100 100">
  <defs>
    <style>
      .cls-1 {
        fill: #fff;
      }

      .cls-2 {
        fill: url(#radial-gradient);
      }
    </style>
    <radialGradient id="radial-gradient" cx="50" cy="50" fx="50" fy="50" r="65.62" gradientUnits="userSpaceOnUse">
      <stop offset="0" stop-color="#0062ff"/>
      <stop offset=".16" stop-color="#005ff9"/>
      <stop offset=".38" stop-color="#0058e9"/>
      <stop offset=".61" stop-color="#004ccf"/>
      <stop offset=".86" stop-color="#003baa"/>
      <stop offset="1" stop-color="#003194"/>
    </radialGradient>
  </defs>
  <rect class="cls-2" x="0" width="100" height="100" rx="11.97" ry="11.97"/>
  <g>
    <path class="cls-1" d="M69.99,21.32H30.01c-2.43,0-4.4,1.97-4.4,4.4v16.61c0,2.43,1.97,4.4,4.4,4.4h15.95l3.65,5c.19,.26,.58,.26,.78,0l3.65-5h15.95c2.43,0,4.4-1.97,4.4-4.4V25.72c0-2.43-1.97-4.4-4.4-4.4Zm-13.44,17.17c.45,.45,.45,1.17,0,1.62-.22,.22-.52,.34-.81,.34s-.59-.11-.81-.34l-1.9-1.9-1.9,1.9c-.22,.22-.52,.34-.81,.34s-.59-.11-.81-.34c-.45-.45-.45-1.17,0-1.62l1.9-1.9-1.9-1.9c-.45-.45-.45-1.17,0-1.62,.44-.45,1.17-.45,1.62,0l1.9,1.9,1.9-1.9c.44-.45,1.17-.45,1.62,0,.45,.45,.45,1.17,0,1.62l-1.9,1.9,1.9,1.9Zm6.81-9.85h-14.12l-6.08,11.2c-.2,.36-.58,.59-.99,.6h-.01c-.41,0-.79-.22-.99-.57l-3.46-6.04h-1.07c-.63,0-1.14-.51-1.14-1.14s.51-1.14,1.14-1.14h1.73c.41,0,.79,.22,.99,.57l2.77,4.83,5.43-10c.2-.37,.59-.6,1.01-.6h14.8c.63,0,1.14,.51,1.14,1.14s-.51,1.14-1.14,1.14Z"/>
    <path class="cls-1" d="M82.5,69.47v2.39c0,1.81-1.47,3.27-3.28,3.27h-23.73c-.95,2.09-3.06,3.55-5.5,3.55s-4.55-1.46-5.5-3.55H20.77c-1.81,0-3.27-1.47-3.27-3.27v-2.39H82.5Z"/>
    <g>
      <path class="cls-1" d="M48.91,58.13v8.95H19.77v-2.62c0-.39,.13-.77,.38-1.06,.47-.55,1.04-.88,1.74-.95,7.24-.17,13.95-2.54,20.41-5.54,2.36-.82,4.57-.49,6.61,1.22Z"/>
      <path class="cls-1" d="M51.09,58.13v8.95s29.14,0,29.14,0v-2.62c0-.39-.13-.77-.38-1.06-.47-.55-1.04-.88-1.74-.95-7.24-.17-13.95-2.54-20.41-5.54-2.36-.82-4.57-.49-6.61,1.22Z"/>
    </g>
  </g>
</svg>